<svg width="800" height="600" viewBox="0 0 800 600" xmlns="http://www.w3.org/2000/svg" style="font-family: &quot;Helvetica Neue&quot;, Helvetica, Arial, sans-serif;"><rect width="100%" height="100%" fill="white"/><text x="60" y="30" font-size="18" font-weight="bold" fill="#333">多模型 ROC 曲线</text><g><g><line x1="60" y1="540" x2="600" y2="540" stroke="#e0e0e0" stroke-width="1"/><text x="50" y="545" text-anchor="end" font-size="12" fill="#666">0.00</text></g><g><line x1="60" y1="420" x2="600" y2="420" stroke="#e0e0e0" stroke-width="1"/><text x="50" y="425" text-anchor="end" font-size="12" fill="#666">0.25</text></g><g><line x1="60" y1="300" x2="600" y2="300" stroke="#e0e0e0" stroke-width="1"/><text x="50" y="305" text-anchor="end" font-size="12" fill="#666">0.50</text></g><g><line x1="60" y1="180" x2="600" y2="180" stroke="#e0e0e0" stroke-width="1"/><text x="50" y="185" text-anchor="end" font-size="12" fill="#666">0.75</text></g><g><line x1="60" y1="60" x2="600" y2="60" stroke="#e0e0e0" stroke-width="1"/><text x="50" y="65" text-anchor="end" font-size="12" fill="#666">1.00</text></g><g><line x1="60" y1="60" x2="60" y2="540" stroke="#e0e0e0" stroke-width="1"/><text x="60" y="560" text-anchor="middle" font-size="12" fill="#666">0.00</text></g><g><line x1="195" y1="60" x2="195" y2="540" stroke="#e0e0e0" stroke-width="1"/><text x="195" y="560" text-anchor="middle" font-size="12" fill="#666">0.25</text></g><g><line x1="330" y1="60" x2="330" y2="540" stroke="#e0e0e0" stroke-width="1"/><text x="330" y="560" text-anchor="middle" font-size="12" fill="#666">0.50</text></g><g><line x1="465" y1="60" x2="465" y2="540" stroke="#e0e0e0" stroke-width="1"/><text x="465" y="560" text-anchor="middle" font-size="12" fill="#666">0.75</text></g><g><line x1="600" y1="60" x2="600" y2="540" stroke="#e0e0e0" stroke-width="1"/><text x="600" y="560" text-anchor="middle" font-size="12" fill="#666">1.00</text></g><text x="15" y="300" transform="rotate(-90, 15, 300)" text-anchor="middle" font-size="14" fill="#333" font-weight="bold">真阳性率 (True Positive Rate)</text><text x="330" y="585" text-anchor="middle" font-size="14" fill="#333" font-weight="bold">假阳性率 (False Positive Rate)</text></g><line x1="60" y1="540" x2="600" y2="60" stroke="black" stroke-width="1" stroke-dasharray="4,4"/><path d="M 60 540 L 60 381.59999999999997 L 195 381.59999999999997 L 195 223.2 L 465 223.2 L 465 141.60000000000002 L 600 141.60000000000002 L 600 60" fill="none" stroke="#F8766D" stroke-width="3" stroke-dasharray="8,6" stroke-linecap="round" stroke-linejoin="round"/><path d="M 60 540 L 60 223.2 L 124.8 223.2 L 124.8 141.60000000000002 L 259.8 141.60000000000002 L 259.8 60 L 600 60" fill="none" stroke="#A3A500" stroke-width="3" stroke-dasharray="8,6" stroke-linecap="round" stroke-linejoin="round"/><path d="M 60 540 L 60 300 L 124.8 300 L 124.8 141.60000000000002 L 259.8 141.60000000000002 L 259.8 60 L 600 60" fill="none" stroke="#00BF7D" stroke-width="3" stroke-dasharray="8,6" stroke-linecap="round" stroke-linejoin="round"/><path d="M 60 540 L 60 300 L 124.8 300 L 124.8 60 L 600 60" fill="none" stroke="#00B0F6" stroke-width="3" stroke-dasharray="8,6" stroke-linecap="round" stroke-linejoin="round"/><path d="M 60 540 L 600 60" fill="none" stroke="#E76BF3" stroke-width="3" stroke-dasharray="8,6" stroke-linecap="round" stroke-linejoin="round"/><g transform="translate(620, 240)"><g transform="translate(0, 0)"><line x1="0" y1="5" x2="20" y2="5" stroke="#F8766D" stroke-width="3" stroke-dasharray="6,4"/><text x="30" y="9" font-size="12" fill="#333">深度学习 (AUC=0.625)</text></g><g transform="translate(0, 25)"><line x1="0" y1="5" x2="20" y2="5" stroke="#A3A500" stroke-width="3" stroke-dasharray="6,4"/><text x="30" y="9" font-size="12" fill="#333">分布式随机森林 (AUC=0.917)</text></g><g transform="translate(0, 50)"><line x1="0" y1="5" x2="20" y2="5" stroke="#00BF7D" stroke-width="3" stroke-dasharray="6,4"/><text x="30" y="9" font-size="12" fill="#333">梯度提升机 (AUC=0.896)</text></g><g transform="translate(0, 75)"><line x1="0" y1="5" x2="20" y2="5" stroke="#00B0F6" stroke-width="3" stroke-dasharray="6,4"/><text x="30" y="9" font-size="12" fill="#333">广义线性模型 (AUC=0.938)</text></g><g transform="translate(0, 100)"><line x1="0" y1="5" x2="20" y2="5" stroke="#E76BF3" stroke-width="3" stroke-dasharray="6,4"/><text x="30" y="9" font-size="12" fill="#333">XGBoost (AUC=0.5)</text></g></g></svg>