<svg width="800" height="500" viewBox="0 0 800 500" xmlns="http://www.w3.org/2000/svg" style="font-family: &quot;Helvetica Neue&quot;, Helvetica, Arial, sans-serif;"><g><line x1="60" y1="440" x2="770" y2="440" stroke="#e5e7eb" stroke-width="1"/><text x="50" y="444" text-anchor="end" font-size="12" fill="#6b7280">0.00</text></g><g><line x1="60" y1="345" x2="770" y2="345" stroke="#e5e7eb" stroke-width="1"/><text x="50" y="349" text-anchor="end" font-size="12" fill="#6b7280">0.25</text></g><g><line x1="60" y1="250" x2="770" y2="250" stroke="#e5e7eb" stroke-width="1"/><text x="50" y="254" text-anchor="end" font-size="12" fill="#6b7280">0.50</text></g><g><line x1="60" y1="155" x2="770" y2="155" stroke="#e5e7eb" stroke-width="1"/><text x="50" y="159" text-anchor="end" font-size="12" fill="#6b7280">0.75</text></g><g><line x1="60" y1="60" x2="770" y2="60" stroke="#e5e7eb" stroke-width="1"/><text x="50" y="64" text-anchor="end" font-size="12" fill="#6b7280">1.00</text></g><g><rect x="80" y="250" width="16.4" height="190" fill="#d7191c"><title>深度学习 - 准确率: 0.5</title></rect><rect x="100.4" y="303.20000000000005" width="16.4" height="136.79999999999998" fill="#fdae61"><title>深度学习 - 精确率: 0.36</title></rect><rect x="120.8" y="242.4" width="16.4" height="197.6" fill="#ffffbf"><title>深度学习 - AUC: 0.52</title></rect><rect x="141.2" y="230.99999999999997" width="16.4" height="209.00000000000003" fill="#a6d96a"><title>深度学习 - 召回率: 0.55</title></rect><rect x="161.6" y="276.6" width="16.4" height="163.4" fill="#1a9641"><title>深度学习 - F1: 0.43</title></rect><text x="131" y="465" text-anchor="middle" font-size="13" font-weight="bold" fill="#374151">深度学习</text></g><g><rect x="222" y="170.2" width="16.4" height="269.8" fill="#d7191c"><title>分布式随机森林 - 准确率: 0.71</title></rect><rect x="242.4" y="151.2" width="16.4" height="288.8" fill="#fdae61"><title>分布式随机森林 - 精确率: 0.76</title></rect><rect x="262.8" y="90.39999999999998" width="16.4" height="349.6" fill="#ffffbf"><title>分布式随机森林 - AUC: 0.92</title></rect><rect x="283.2" y="155" width="16.4" height="285" fill="#a6d96a"><title>分布式随机森林 - 召回率: 0.75</title></rect><rect x="303.6" y="181.59999999999997" width="16.4" height="258.40000000000003" fill="#1a9641"><title>分布式随机森林 - F1: 0.68</title></rect><text x="273" y="465" text-anchor="middle" font-size="13" font-weight="bold" fill="#374151">分布式随机森林</text></g><g><rect x="364" y="193" width="16.4" height="247" fill="#d7191c"><title>梯度提升机 - 准确率: 0.65</title></rect><rect x="384.4" y="181.59999999999997" width="16.4" height="258.40000000000003" fill="#fdae61"><title>梯度提升机 - 精确率: 0.68</title></rect><rect x="404.8" y="132.2" width="16.4" height="307.8" fill="#ffffbf"><title>梯度提升机 - AUC: 0.81</title></rect><rect x="425.2" y="166.40000000000003" width="16.4" height="273.59999999999997" fill="#a6d96a"><title>梯度提升机 - 召回率: 0.72</title></rect><rect x="445.6" y="204.4" width="16.4" height="235.6" fill="#1a9641"><title>梯度提升机 - F1: 0.62</title></rect><text x="415" y="465" text-anchor="middle" font-size="13" font-weight="bold" fill="#374151">梯度提升机</text></g><g><rect x="506" y="158.8" width="16.4" height="281.2" fill="#d7191c"><title>广义线性模型 - 准确率: 0.74</title></rect><rect x="526.4" y="147.39999999999998" width="16.4" height="292.6" fill="#fdae61"><title>广义线性模型 - 精确率: 0.77</title></rect><rect x="546.8" y="60" width="16.4" height="380" fill="#ffffbf"><title>广义线性模型 - AUC: 1</title></rect><rect x="567.2" y="128.40000000000003" width="16.4" height="311.59999999999997" fill="#a6d96a"><title>广义线性模型 - 召回率: 0.82</title></rect><rect x="587.6" y="162.60000000000002" width="16.4" height="277.4" fill="#1a9641"><title>广义线性模型 - F1: 0.73</title></rect><text x="557" y="465" text-anchor="middle" font-size="13" font-weight="bold" fill="#374151">广义线性模型</text></g><g><rect x="648" y="276.6" width="16.4" height="163.4" fill="#d7191c"><title>XGBoost - 准确率: 0.43</title></rect><rect x="668.4" y="276.6" width="16.4" height="163.4" fill="#fdae61"><title>XGBoost - 精确率: 0.43</title></rect><rect x="688.8" y="250" width="16.4" height="190" fill="#ffffbf"><title>XGBoost - AUC: 0.5</title></rect><rect x="709.2" y="60" width="16.4" height="380" fill="#a6d96a"><title>XGBoost - 召回率: 1</title></rect><rect x="729.6" y="212" width="16.4" height="228" fill="#1a9641"><title>XGBoost - F1: 0.6</title></rect><text x="699" y="465" text-anchor="middle" font-size="13" font-weight="bold" fill="#374151">XGBoost</text></g><g transform="translate(200, 20)"><g transform="translate(0, 0)"><rect width="15" height="15" fill="#d7191c" rx="2"/><text x="20" y="12" font-size="12" fill="#374151" font-weight="500">准确率</text></g><g transform="translate(90, 0)"><rect width="15" height="15" fill="#fdae61" rx="2"/><text x="20" y="12" font-size="12" fill="#374151" font-weight="500">精确率</text></g><g transform="translate(180, 0)"><rect width="15" height="15" fill="#ffffbf" rx="2"/><text x="20" y="12" font-size="12" fill="#374151" font-weight="500">AUC</text></g><g transform="translate(270, 0)"><rect width="15" height="15" fill="#a6d96a" rx="2"/><text x="20" y="12" font-size="12" fill="#374151" font-weight="500">召回率</text></g><g transform="translate(360, 0)"><rect width="15" height="15" fill="#1a9641" rx="2"/><text x="20" y="12" font-size="12" fill="#374151" font-weight="500">F1</text></g></g></svg>